<svg width="32" height="32" viewBox="0 0 32 32" fill="none" xmlns="http://www.w3.org/2000/svg">
<path d="M15.272 2.9808C15.3682 3.22467 15.5527 3.41905 15.7856 3.52167L16.4709 3.81508V16.2663C16.4709 16.62 16.6056 16.9593 16.8453 17.2094C17.0851 17.4595 17.4103 17.6 17.7493 17.6H24.1417H27.0183C27.2726 17.6 27.5165 17.4946 27.6963 17.307C27.8761 17.1194 27.9771 16.865 27.9771 16.5997C27.9771 16.3345 27.8761 16.08 27.6963 15.8925C27.5165 15.7049 27.2726 15.5995 27.0183 15.5995H26.6986V8.20823C26.9363 8.30285 27.2003 8.29509 27.4325 8.18667C27.6647 8.07824 27.8461 7.87803 27.9368 7.63008C28.0275 7.38212 28.0201 7.10674 27.9162 6.8645C27.8122 6.62227 27.6203 6.43303 27.3826 6.33841L26.6986 6.045V3.92978C26.6986 3.6645 26.5976 3.41008 26.4178 3.22249C26.238 3.0349 25.9941 2.92952 25.7398 2.92952C25.4855 2.92952 25.2416 3.0349 25.0618 3.22249C24.882 3.41008 24.7809 3.6645 24.7809 3.92978V5.22212L16.5156 1.67186C16.281 1.57372 16.0187 1.5762 15.7858 1.67875C15.553 1.78131 15.3683 1.97565 15.2721 2.21948C15.1759 2.46332 15.1758 2.73694 15.272 2.9808Z" fill="#F97316"/>
<path fill-rule="evenodd" clip-rule="evenodd" d="M7.44319 30.4H14.4V4.79999H5.9451C5.64139 4.79999 5.35013 4.93484 5.13538 5.17489C4.92063 5.41494 4.79999 5.74051 4.79999 6.07999C4.79999 6.41946 4.92063 6.74504 5.13538 6.98508C5.22948 7.09027 5.53215 7.13828 5.87224 7.19223C6.30825 7.26139 6.80575 7.3403 7.00406 7.56197L7.52934 27.84H7.44319C7.13949 27.84 6.84823 27.9748 6.63348 28.2149C6.41873 28.4549 6.29808 28.7805 6.29808 29.12C6.29808 29.4595 6.41873 29.785 6.63348 30.0251C6.84823 30.2651 7.13949 30.4 7.44319 30.4Z" fill="#C2410C"/>
</svg>
